<mxfile host="app.diagrams.net" modified="2020-11-06T15:59:22.895Z" agent="5.0 (Macintosh; Intel Mac OS X 10_15_7) AppleWebKit/605.1.15 (KHTML, like Gecko) Version/14.0 Safari/605.1.15" etag="5otSDFlOxIakbWcDK9Fo" version="13.9.2" type="github">
  <diagram name="Page-1" id="7a6c530e-6e37-e111-ec74-82921da8cc10">
    <mxGraphModel dx="1186" dy="799" grid="1" gridSize="10" guides="1" tooltips="1" connect="1" arrows="1" fold="1" page="1" pageScale="1.5" pageWidth="1169" pageHeight="826" background="none" math="0" shadow="0">
      <root>
        <mxCell id="0" style=";html=1;" />
        <mxCell id="1" style=";html=1;" parent="0" />
        <mxCell id="23046e2b9bb16c14-116" value="" style="whiteSpace=wrap;html=1;rounded=1;shadow=0;strokeColor=none;strokeWidth=2;fillColor=#009BFF;fontSize=20;fontColor=#FFFFFF;align=center;arcSize=9;verticalAlign=top;spacingTop=4;" parent="1" vertex="1">
          <mxGeometry x="87" y="67" width="653" height="393" as="geometry" />
        </mxCell>
        <mxCell id="14ZdlUtdtlf5y-mvOtUs-4" value="" style="rounded=1;whiteSpace=wrap;html=1;shadow=0;strokeWidth=2;fontSize=12;fontColor=#FFFFFF;align=center;strokeColor=none;arcSize=29;verticalAlign=top;fillColor=#009619;" vertex="1" parent="1">
          <mxGeometry x="477" y="590" width="200" height="170" as="geometry" />
        </mxCell>
        <mxCell id="14ZdlUtdtlf5y-mvOtUs-5" value="" style="dashed=0;outlineConnect=0;html=1;align=center;labelPosition=center;verticalLabelPosition=bottom;verticalAlign=top;shape=mxgraph.weblogos.github;fillColor=#009619;" vertex="1" parent="1">
          <mxGeometry x="160" y="615" width="120" height="120" as="geometry" />
        </mxCell>
        <mxCell id="14ZdlUtdtlf5y-mvOtUs-6" value="&lt;font style=&quot;font-size: 40px&quot;&gt;&lt;b&gt;SubDAO&lt;br&gt;Node&lt;/b&gt;&lt;/font&gt;" style="text;html=1;align=center;verticalAlign=middle;resizable=0;points=[];autosize=1;" vertex="1" parent="1">
          <mxGeometry x="170" y="238.5" width="180" height="50" as="geometry" />
        </mxCell>
        <mxCell id="14ZdlUtdtlf5y-mvOtUs-8" value="&lt;span style=&quot;font-size: 30px&quot;&gt;&lt;b&gt;Github Http&lt;br&gt;Wrapper&lt;/b&gt;&lt;/span&gt;" style="text;html=1;align=center;verticalAlign=middle;resizable=0;points=[];autosize=1;" vertex="1" parent="1">
          <mxGeometry x="487" y="650" width="180" height="50" as="geometry" />
        </mxCell>
        <mxCell id="14ZdlUtdtlf5y-mvOtUs-9" value="" style="group" vertex="1" connectable="0" parent="1">
          <mxGeometry x="480" y="220" width="200" height="170" as="geometry" />
        </mxCell>
        <mxCell id="23046e2b9bb16c14-28" value="" style="rounded=1;whiteSpace=wrap;html=1;shadow=0;strokeWidth=2;fillColor=#F04D22;fontSize=12;fontColor=#FFFFFF;align=center;strokeColor=none;arcSize=29;verticalAlign=top;" parent="14ZdlUtdtlf5y-mvOtUs-9" vertex="1">
          <mxGeometry width="200" height="170" as="geometry" />
        </mxCell>
        <mxCell id="14ZdlUtdtlf5y-mvOtUs-7" value="&lt;span style=&quot;font-size: 30px&quot;&gt;&lt;b&gt;OCW&lt;br&gt;Pallet&lt;/b&gt;&lt;/span&gt;" style="text;html=1;align=center;verticalAlign=middle;resizable=0;points=[];autosize=1;" vertex="1" parent="14ZdlUtdtlf5y-mvOtUs-9">
          <mxGeometry x="50" y="60" width="100" height="50" as="geometry" />
        </mxCell>
        <mxCell id="14ZdlUtdtlf5y-mvOtUs-10" value="" style="shape=flexArrow;endArrow=classic;startArrow=classic;html=1;entryX=0.75;entryY=1;entryDx=0;entryDy=0;exitX=0.5;exitY=0;exitDx=0;exitDy=0;endWidth=52.85714285714286;endSize=12.914285714285715;startWidth=52.85714285714286;startSize=12.914285714285715;width=51.42857142857143;strokeWidth=4;" edge="1" parent="1" source="14ZdlUtdtlf5y-mvOtUs-4" target="23046e2b9bb16c14-116">
          <mxGeometry width="50" height="50" relative="1" as="geometry">
            <mxPoint x="530" y="530" as="sourcePoint" />
            <mxPoint x="580" y="480" as="targetPoint" />
          </mxGeometry>
        </mxCell>
        <mxCell id="14ZdlUtdtlf5y-mvOtUs-13" value="&lt;font style=&quot;font-size: 20px&quot;&gt;Http&lt;/font&gt;" style="edgeLabel;html=1;align=center;verticalAlign=middle;resizable=0;points=[];" vertex="1" connectable="0" parent="14ZdlUtdtlf5y-mvOtUs-10">
          <mxGeometry x="-0.0263" y="1" relative="1" as="geometry">
            <mxPoint as="offset" />
          </mxGeometry>
        </mxCell>
        <mxCell id="14ZdlUtdtlf5y-mvOtUs-11" value="" style="shape=flexArrow;endArrow=classic;startArrow=classic;html=1;entryX=0;entryY=0.5;entryDx=0;entryDy=0;endWidth=62.85714285714286;endSize=15.285714285714286;startWidth=62.85714285714286;startSize=12.285714285714286;width=45.714285714285715;strokeWidth=4;" edge="1" parent="1" source="14ZdlUtdtlf5y-mvOtUs-5" target="14ZdlUtdtlf5y-mvOtUs-4">
          <mxGeometry width="50" height="50" relative="1" as="geometry">
            <mxPoint x="820" y="540" as="sourcePoint" />
            <mxPoint x="870" y="490" as="targetPoint" />
          </mxGeometry>
        </mxCell>
        <mxCell id="14ZdlUtdtlf5y-mvOtUs-14" value="&lt;font style=&quot;font-size: 20px&quot;&gt;Http&lt;/font&gt;" style="edgeLabel;html=1;align=center;verticalAlign=middle;resizable=0;points=[];" vertex="1" connectable="0" parent="14ZdlUtdtlf5y-mvOtUs-11">
          <mxGeometry x="-0.0602" y="-5" relative="1" as="geometry">
            <mxPoint as="offset" />
          </mxGeometry>
        </mxCell>
      </root>
    </mxGraphModel>
  </diagram>
</mxfile>
